<svg xmlns="http://www.w3.org/2000/svg" xmlns:xlink="http://www.w3.org/1999/xlink" version="1.1" x="0px" y="0px" viewBox="0 0 32 40" enable-background="new 0 0 32 32" xml:space="preserve">
	<path fill-rule="evenodd" clip-rule="evenodd" d="M27.326,31.542c-2.693,0.581-4.972,0.614-5.087,0.074  c-0.101-0.475,1.489-1.23,3.696-1.804l-2.075-9.69c-1.718-0.015-3.387-0.997-4.644-2.584c-0.004,0-0.009-0.002-0.013-0.002  l-0.002-0.015c-0.857-1.09-1.526-2.454-1.86-4.019C16.989,11.869,16.076,5.712,16,2.211c-0.076,3.501-0.989,9.658-1.341,11.292  c-0.824,3.857-3.62,6.597-6.52,6.619l-2.075,9.69c2.207,0.573,3.797,1.329,3.696,1.804c-0.115,0.54-2.394,0.507-5.087-0.074  c-2.695-0.583-4.787-1.492-4.669-2.034c0.101-0.474,1.863-0.509,4.109-0.117l2.075-9.691c-2.633-1.218-4.063-4.867-3.237-8.725  C3.306,9.318,5.028,3.192,6.404,0L16,2.075L25.596,0c1.376,3.192,3.099,9.318,3.453,10.975c0.826,3.857-0.604,7.507-3.237,8.725  l2.075,9.691c2.246-0.392,4.008-0.356,4.108,0.117C32.113,30.05,30.021,30.959,27.326,31.542L27.326,31.542z M7.667,2.324  c-0.804,2.014-1.756,5.222-2.32,7.31C5.918,9.86,6.534,10,7.187,10c1.082,0,2.08-0.346,2.897-0.929l0.002,0.017  c0-0.003,0-0.02,0-0.02c0.969-0.669,2.139-1.069,3.406-1.069c0.194-1.53,0.358-3.111,0.408-4.327L7.667,2.324L7.667,2.324z   M24.332,2.324L18.1,3.672c0.041,1.014,0.163,2.281,0.313,3.562c1.057,0.265,2.034,0.736,2.883,1.373l0.002,0.008V8.589  C22.469,9.471,23.92,10,25.498,10c0.419,0,0.824-0.041,1.223-0.113C26.168,7.812,25.169,4.42,24.332,2.324L24.332,2.324z"/>
</svg>