<svg xmlns="http://www.w3.org/2000/svg" xmlns:xlink="http://www.w3.org/1999/xlink" version="1.1" x="0px" y="0px" viewBox="0 0 100 125" style="enable-background:new 0 0 100 100;" xml:space="preserve">
	<style type="text/css">
	.st0{stroke:#000000;stroke-width:2;stroke-linecap:round;stroke-linejoin:round;stroke-miterlimit:10;}
	.st1{fill:none;stroke:#000000;stroke-width:2;stroke-linecap:round;stroke-linejoin:round;stroke-miterlimit:10;}
	</style>
	<path d="M75.7,32.4c0.3,0,0.6-0.1,0.8-0.3c0.2-0.2,0.3-0.5,0.3-0.8l-0.4-9.2c0-0.5-0.4-0.9-0.9-0.9c-0.7-0.1-1.5-0.2-2.2-0.3  l-1.6-8.4c-0.1-0.4-0.4-0.7-0.8-0.8c-22.2-4.9-40.9,0-41.1,0c-0.4,0.1-0.6,0.4-0.7,0.8l-1.7,8.8c-1.4,0.2-2.2,0.4-2.2,0.4  c-0.4,0.1-0.8,0.5-0.8,0.9L24,31.4c0,0.3,0.1,0.6,0.3,0.8c0.2,0.2,0.4,0.3,0.7,0.3c0,0,0.1,0,0.1,0c0.1,0,1.1-0.1,3-0.3l0.4,11.4  c-1.1,0.1-1.7,0.1-1.7,0.1c-0.5,0.1-0.9,0.5-0.9,1l0.9,26c0,0.5,0.4,0.9,0.8,1c0.1,0,0.7,0.1,1.8,0.3l0.4,10.5c0,0.5,0.4,0.9,0.9,1  c0,0,0.3,0,0.8,0.1l0.5,4.1c0.1,0.4,0.4,0.8,0.8,0.9c0.1,0,7.4,1.3,17.8,1.3c5.2,0,11.3-0.3,17.6-1.3c0.4-0.1,0.8-0.4,0.8-0.9  l0.5-4.1c0.2,0,0.5-0.1,0.7-0.1c0.5-0.1,0.9-0.5,0.9-1l0.4-10.6c0.6-0.1,1.2-0.1,1.7-0.2c0.5-0.1,0.9-0.5,0.9-1l0.9-26  c0-0.5-0.4-1-0.9-1c-0.6-0.1-1.1-0.1-1.7-0.1l0.4-11.4C73.7,32.2,74.7,32.3,75.7,32.4z M31,13.5c4-1,20.7-3.8,38.9,0l1.4,7.2  c-19-2.3-34.5-0.7-41.7,0.3L31,13.5z M26.4,23.6c3.9-0.7,22.1-3.7,45.8-0.8c0.1,0,0.2,0.1,0.4,0.1c0,0,0.1,0,0.1,0  c0.6,0.1,1.2,0.2,1.9,0.3l0.3,7.2c-21.4-2.6-43.4-0.6-48.7,0L26.4,23.6z M67,86.5c-16,2.4-29.9,0.5-33.2,0l-0.3-2.9  c3.3,0.3,9.2,0.8,16.7,0.8c5.1,0,10.9-0.2,17.1-0.8L67,86.5z M69,81.4c-18.4,2-33.6,0.5-37.3,0l-0.3-9.3c2.1,0.2,4.9,0.5,8.5,0.6  C43,74.9,46.6,76,50.4,76c3.9,0,7.5-1.2,10.7-3.5c2.7-0.1,5.5-0.4,8.3-0.6L69,81.4z M72,69.7c-3.8,0.4-7.6,0.7-11.4,0.9  c-0.2,0-0.4,0.1-0.5,0.2c-2.8,2.1-6.2,3.2-9.7,3.2c-3.4,0-6.7-1.1-9.5-3.1c-0.2-0.1-0.3-0.2-0.5-0.2c-6-0.3-10-0.7-11.6-1l-0.9-24.2  c1.9-0.2,6.4-0.5,12.4-0.7c0.2,0,0.4-0.1,0.6-0.2c2.8-2,6.1-3.1,9.6-3.1c3.4,0,6.7,1.1,9.5,3.1c0.2,0.1,0.4,0.2,0.6,0.2  c4.3,0.1,8.5,0.4,12.4,0.8L72,69.7z M70.3,43.3c-3.1-0.2-6.2-0.4-9.5-0.5c-3.1-2.2-6.7-3.3-10.4-3.3c-3.8,0-7.4,1.2-10.5,3.3  c-3.9,0.1-7.1,0.3-9.4,0.5l-0.4-11.4c7.9-0.7,24.2-1.7,40.6-0.1L70.3,43.3z"/>
</svg>