<svg xmlns="http://www.w3.org/2000/svg" data-name="Layer 1" viewBox="0 0 100 125" x="0px" y="0px">
	<path d="M71.58,37.56a22.51,22.51,0,1,0-44.13,1.26A9.49,9.49,0,0,0,25.92,44a9.59,9.59,0,0,0,5.66,8.73l15.6,34.2a3.1,3.1,0,0,0,5.64,0l15.6-34.2A9.59,9.59,0,0,0,74.08,44,9.48,9.48,0,0,0,71.58,37.56Zm-21,48.34a.6.6,0,0,1-1.09,0L45.7,77.67a2.37,2.37,0,0,0,1.49-1,2.17,2.17,0,0,0,3.73,0,2.17,2.17,0,0,0,3.73,0l.07.09Zm5.3-11.62a2,2,0,0,0-1.19-.38A2.28,2.28,0,0,0,52.79,75a2.17,2.17,0,0,0-3.73,0,2.17,2.17,0,0,0-3.72,0A2.45,2.45,0,0,0,44,74l-2.19-4.8a2.61,2.61,0,0,0,.63.08A3,3,0,0,0,45,67.68c.3-.42.4-.53.49-.53s.19.11.49.53a2.81,2.81,0,0,0,5.05,0c.3-.42.4-.53.49-.53s.19.11.49.53a2.81,2.81,0,0,0,5.05,0c.3-.42.41-.53.49-.53s.19.11.49.53a6.57,6.57,0,0,0,.52.66Zm3.88-8.5a2.74,2.74,0,0,0-2.19-1.13A3.06,3.06,0,0,0,55,66.23c-.3.42-.41.53-.49.53s-.19-.11-.49-.53a2.81,2.81,0,0,0-5.05,0c-.3.42-.4.53-.49.53s-.19-.11-.49-.53a2.81,2.81,0,0,0-5,0c-.3.42-.4.53-.49.53s-.19-.11-.49-.53a3.19,3.19,0,0,0-2.19-1.55l-2-4.28a3,3,0,0,0,1.81.58,3.75,3.75,0,0,0,3.09-2c.52-.73.71-.93,1.06-.93s.53.2,1.06.93A3.4,3.4,0,0,0,51,59c.52-.73.71-.93,1.06-.93s.54.2,1.06.93a3.41,3.41,0,0,0,6.19,0c.52-.73.71-.93,1.06-.93s.54.2,1.06.93a7.16,7.16,0,0,0,.9,1.07Zm3.74-8.21h0a3.41,3.41,0,0,0-6.19,0c-.52.73-.71.93-1.06.93s-.54-.2-1.06-.93a3.41,3.41,0,0,0-6.18,0c-.52.73-.71.93-1.06.93s-.53-.2-1.05-.93a3.4,3.4,0,0,0-6.18,0c-.52.73-.71.93-1.06.93s-.53-.2-1.06-.93a3.81,3.81,0,0,0-2.94-2l-.93-2h.23l.57,0h.21l.35,0c.27,0,.53,0,.8-.08l.25,0q.44-.08.87-.19l.17,0q.46-.13.9-.31l.13-.05a9.6,9.6,0,0,0,.87-.42l.13-.07c.27-.15.53-.32.79-.5l.15-.1c.24-.18.47-.37.7-.56L42,51a9.59,9.59,0,0,0,.77-.78A9.61,9.61,0,0,0,49,53.53a9.52,9.52,0,0,0,4.09-.44,9.63,9.63,0,0,0,4.2-2.82A9.6,9.6,0,0,0,58,51l.16.14c.22.2.45.38.69.56l.17.12c.25.17.5.33.77.48l.16.08q.41.22.84.4l.16.06q.43.17.87.3l.19.05q.42.11.86.19l.26,0c.26,0,.53.06.79.08l.35,0h.21l.57,0h.23Zm3.82-7.05-.23.09h0l-.6.2h-.05l-.56.13-.21,0-.43.06c-.22,0-.45,0-.67,0a7,7,0,0,1-.94-.06,7.11,7.11,0,0,1-5.22-3.53l-1.09-1.92h0l-1.09,1.92A7.11,7.11,0,0,1,50.94,51a7,7,0,0,1-.94.06,7.1,7.1,0,0,1-6.16-3.6l-1.09-1.92-1.09,1.92a7.1,7.1,0,0,1-6.16,3.6c-.23,0-.45,0-.67,0L34.4,51l-.21,0-.56-.13h-.05l-.6-.2h0l-.23-.09A7.09,7.09,0,0,1,28.42,44a7,7,0,0,1,1.39-4.19l.35-.48L30,38.76a20,20,0,1,1,39-1l-.14.68.5.48A7,7,0,0,1,71.58,44,7.09,7.09,0,0,1,67.29,50.51Z"/>
</svg>