<svg xmlns="http://www.w3.org/2000/svg" xmlns:xlink="http://www.w3.org/1999/xlink" version="1.1" x="0px" y="0px" viewBox="0 0 100 125" enable-background="new 0 0 100 100" xml:space="preserve">
	<g>
		<path d="M95.021,49.022h-7.105v-0.624c0-0.848-0.686-1.536-1.534-1.536c-0.848,0-1.536,0.688-1.536,1.536v-8.111   c0-1.272-1.03-2.304-2.304-2.304h-4.032c-1.271,0-2.304,1.031-2.304,2.304v-4.608c0-1.272-1.03-2.304-2.304-2.304h-5.184   c-1.271,0-2.304,1.032-2.304,2.304v13.343H33.585V35.679c0-1.272-1.031-2.304-2.304-2.304h-5.184c-1.272,0-2.304,1.032-2.304,2.304   v4.608c0-1.272-1.032-2.304-2.304-2.304h-4.031c-1.272,0-2.304,1.031-2.304,2.304v8.111c0-0.848-0.687-1.536-1.536-1.536   c-0.848,0-1.535,0.688-1.535,1.536v0.624H4.979v7.008h7.104v0.624c0,0.848,0.687,1.534,1.535,1.534   c0.849,0,1.536-0.687,1.536-1.534v8.11c0,1.272,1.032,2.304,2.304,2.304h4.031c1.272,0,2.304-1.031,2.304-2.304v4.607   c0,1.272,1.031,2.305,2.304,2.305h5.184c1.272,0,2.304-1.032,2.304-2.305V56.03h32.829v13.342c0,1.272,1.032,2.305,2.304,2.305   h5.184c1.273,0,2.304-1.032,2.304-2.305v-4.607c0,1.272,1.032,2.304,2.304,2.304h4.032c1.273,0,2.304-1.031,2.304-2.304v-8.11   c0,0.848,0.688,1.534,1.536,1.534c0.849,0,1.534-0.687,1.534-1.534V56.03h7.105V49.022z"/>
	</g>
</svg>