<svg xmlns="http://www.w3.org/2000/svg" xmlns:xlink="http://www.w3.org/1999/xlink" version="1.1" x="0px" y="0px" viewBox="0 0 100 125" enable-background="new 0 0 100 100" xml:space="preserve">
	<path d="M46.221,13.322c0.174,0.153,0.223,0.301,0.171,0.528l-0.859,3.813c-0.094,0.418-0.024,0.59,0.126,0.699  c0.148,0.109,0.334,0.121,0.702-0.097l3.36-1.996c0.2-0.118,0.355-0.118,0.556,0l3.36,1.996c0.369,0.218,0.553,0.206,0.703,0.097  c0.148-0.109,0.219-0.281,0.124-0.699l-0.858-3.813c-0.051-0.227-0.002-0.375,0.172-0.528l2.937-2.58  c0.322-0.283,0.367-0.463,0.31-0.638c-0.057-0.177-0.199-0.295-0.625-0.334l-3.892-0.363c-0.231-0.021-0.358-0.113-0.45-0.325  l-1.545-3.589C50.341,5.098,50.185,5,50,5s-0.341,0.098-0.511,0.492l-1.546,3.589c-0.092,0.212-0.218,0.304-0.449,0.325L43.602,9.77  c-0.426,0.039-0.569,0.158-0.626,0.334c-0.058,0.175-0.012,0.355,0.31,0.638L46.221,13.322z"/>
	<path d="M66.254,13.322c0.174,0.153,0.223,0.301,0.172,0.528l-0.859,3.813c-0.092,0.418-0.024,0.59,0.125,0.699  c0.149,0.109,0.334,0.121,0.703-0.097l3.36-1.996c0.2-0.118,0.356-0.118,0.556,0l3.361,1.996c0.369,0.218,0.553,0.207,0.703,0.097  c0.15-0.109,0.218-0.28,0.125-0.699l-0.859-3.813c-0.051-0.227-0.002-0.375,0.172-0.528l2.937-2.58  c0.321-0.283,0.367-0.463,0.31-0.638C77,9.927,76.857,9.809,76.432,9.77L72.54,9.407c-0.231-0.021-0.358-0.113-0.45-0.325  l-1.545-3.59C70.375,5.098,70.218,5,70.033,5c-0.186,0-0.342,0.098-0.512,0.492l-1.547,3.59c-0.091,0.212-0.218,0.304-0.449,0.325  L63.634,9.77c-0.427,0.039-0.569,0.158-0.626,0.334c-0.056,0.175-0.012,0.354,0.311,0.638L66.254,13.322z"/>
	<path d="M26.188,13.322c0.173,0.153,0.221,0.301,0.171,0.528L25.5,17.663c-0.094,0.418-0.025,0.59,0.125,0.699  c0.149,0.109,0.334,0.122,0.703-0.097l3.359-1.996c0.201-0.118,0.357-0.118,0.557,0l3.361,1.996  c0.369,0.219,0.553,0.207,0.703,0.097c0.15-0.109,0.219-0.28,0.125-0.699l-0.86-3.813c-0.05-0.227-0.002-0.375,0.172-0.528  l2.937-2.58c0.322-0.283,0.367-0.463,0.311-0.638c-0.058-0.177-0.2-0.295-0.626-0.334l-3.892-0.363  c-0.231-0.021-0.358-0.113-0.45-0.325l-1.545-3.59C30.308,5.098,30.15,5,29.967,5c-0.186,0-0.342,0.098-0.512,0.492l-1.546,3.59  c-0.091,0.212-0.218,0.304-0.449,0.325L23.567,9.77c-0.426,0.039-0.568,0.158-0.624,0.334c-0.059,0.175-0.014,0.354,0.31,0.638  L26.188,13.322z"/>
	<path d="M85.354,86.162h-2.946V26.449c0-2.733-1.39-4.124-4.125-4.124H21.716c-2.732,0-4.124,1.391-4.124,4.124v59.713h-2.946  c-1.952,0-2.945,0.994-2.945,2.945v2.947c0,1.951,0.993,2.945,2.945,2.945h70.706c1.953,0,2.946-0.994,2.946-2.945v-2.947  C88.298,87.156,87.305,86.162,85.354,86.162z M35.269,78.688H24.663V68.082h10.606V78.688z M35.269,60.035H24.663V49.429h10.606  V60.035z M35.269,41.381H24.663V30.774h10.606V41.381z M55.302,86.162H44.697V68.083h10.605V86.162z M55.302,60.035H44.697V49.429  h10.605V60.035z M55.302,41.381H44.697V30.774h10.605V41.381z M75.336,78.688H64.73V68.082h10.605V78.688z M75.336,60.035H64.73  V49.429h10.605V60.035z M75.336,41.381H64.73V30.774h10.605V41.381z"/>
</svg>