<svg xmlns="http://www.w3.org/2000/svg" xmlns:xlink="http://www.w3.org/1999/xlink" version="1.1" x="0px" y="0px" viewBox="0 0 100 125" style="enable-background:new 0 0 100 100;" xml:space="preserve">
	<g>
		<path d="M50,96.2l1.5-1.6c1.2-1.3,30.2-33,30.2-54.6c0-20.7-13-35.2-31.7-35.2S18.3,19.3,18.3,40c0,21.5,29,53.2,30.2,54.6L50,96.2   z M50,8.8c16.6,0,27.7,12.6,27.7,31.2c0,17.4-21.8,43.4-27.7,50.2C44.1,83.4,22.3,57.4,22.3,40C22.3,21.3,33.4,8.8,50,8.8z"/><path d="M66.6,36.1c0-9.1-7.4-16.6-16.6-16.6s-16.6,7.4-16.6,16.6S40.9,52.6,50,52.6S66.6,45.2,66.6,36.1z M37.4,36.1   c0-6.9,5.6-12.6,12.6-12.6s12.6,5.6,12.6,12.6S56.9,48.6,50,48.6S37.4,43,37.4,36.1z"/>
	</g>
</svg>