<svg xmlns="http://www.w3.org/2000/svg" xmlns:xlink="http://www.w3.org/1999/xlink" xml:space="preserve" version="1.0" style="shape-rendering:geometricPrecision;text-rendering:geometricPrecision;image-rendering:optimizeQuality; fill:green;" viewBox="0 0 261 292.5" x="0px" y="0px" fill-rule="evenodd" clip-rule="evenodd"><defs>
</defs>
	<g>
		<path class="fil0" d="M124 120c-5,-6 -11,-11 -18,-14 2,-3 4,-7 5,-10 5,0 11,0 16,-2 0,3 -4,26 -3,26zm-26 -6c6,8 13,16 17,22 2,3 1,11 -1,11 -4,0 -19,-6 -32,-11 1,-5 1,-10 -1,-15 6,-1 12,-3 17,-7zm-19 31c19,14 38,27 41,40 1,8 0,32 -10,38 -31,18 53,10 57,6 8,-10 -22,-37 -9,-50 5,-5 14,-13 24,-20 21,21 72,4 59,-37 33,-15 24,-64 -12,-67 0,-28 -31,-45 -54,-30 -7,-22 -32,-31 -52,-20 -13,-8 -29,-6 -40,3 -15,-7 -34,-2 -44,11 -23,5 -35,33 -23,53 -19,13 -22,40 -5,56 0,43 54,45 68,17zm95 2c-9,5 -15,10 -21,6 -6,-3 7,-18 20,-32 0,0 2,2 2,2 -3,8 -4,16 -1,24zm-9 -32c-10,7 -19,13 -21,11 -1,-2 -1,-14 -2,-26 5,3 10,5 17,6 1,3 3,6 6,9z"/>
	</g>
</svg>