<svg id="Layer_1" data-name="Layer 1" xmlns="http://www.w3.org/2000/svg" viewBox="0 0 66.49 97.89"><defs><style>.cls-1{fill:#231f20;}</style></defs><title>you-icon</title><path class="cls-1" d="M41.88,86.69Z" transform="translate(-16.75 -1.05)"/><path class="cls-1" d="M51.4,27.25a2.9,2.9,0,0,0-2.47-1.18,2.87,2.87,0,0,0-2.48,1.18,5.06,5.06,0,0,0-.86,3v3.13a5,5,0,0,0,.87,3.06A2.91,2.91,0,0,0,49,37.67a2.85,2.85,0,0,0,2.45-1.19,5,5,0,0,0,.87-3.06V30.29A5,5,0,0,0,51.4,27.25Zm0,0a2.9,2.9,0,0,0-2.47-1.18,2.87,2.87,0,0,0-2.48,1.18,5.06,5.06,0,0,0-.86,3v3.13a5,5,0,0,0,.87,3.06A2.91,2.91,0,0,0,49,37.67a2.85,2.85,0,0,0,2.45-1.19,5,5,0,0,0,.87-3.06V30.29A5,5,0,0,0,51.4,27.25ZM75.25,12.7C65.85,1.19,52.42,1,50.16,1.06a2.59,2.59,0,0,0-.32,0C47.58,1,34.15,1.19,24.75,12.7c-10.29,12.62-8.54,25.42-6.21,31.43S28.24,69,47.05,96.71c0,0,1.46,2.24,2.73,2.24a.75.75,0,0,0,.21,0s0,0,0,0a.75.75,0,0,0,.21,0C51.49,99,53,96.71,53,96.71,71.76,69,79.14,50.15,81.46,44.13S85.54,25.32,75.25,12.7ZM35.15,34.43v6.08h-4V34.24l-5.76-11h4.33l3.44,7.54h.07l3.44-7.54H41Zm21.11-1a7.19,7.19,0,0,1-2,5.26A7,7,0,0,1,49,40.76a7,7,0,0,1-7.35-7.34V30.31a7.23,7.23,0,0,1,2-5.25A7.13,7.13,0,0,1,48.93,23a7,7,0,0,1,7.33,7.33Zm16.51,1.13a5.63,5.63,0,0,1-2,4.59,7.78,7.78,0,0,1-5.14,1.62,7.87,7.87,0,0,1-5.18-1.62,5.63,5.63,0,0,1-2-4.59V23.24h4V34.55a3,3,0,0,0,.83,2.35,3.84,3.84,0,0,0,4.6,0,3.11,3.11,0,0,0,.79-2.36V23.24h4ZM48.93,26.07a2.87,2.87,0,0,0-2.48,1.18,5.06,5.06,0,0,0-.86,3v3.13a5,5,0,0,0,.87,3.06A2.91,2.91,0,0,0,49,37.67a2.85,2.85,0,0,0,2.45-1.19,5,5,0,0,0,.87-3.06V30.29a5,5,0,0,0-.87-3A2.9,2.9,0,0,0,48.93,26.07Z" transform="translate(-16.75 -1.05)"/></svg>